<svg width="100" height="53" viewBox="0 0 100 53" fill="none" xmlns="http://www.w3.org/2000/svg">
<path d="M9.99474 20.6629C10.8844 20.6629 11.7195 20.4904 12.5002 20.1455C13.2991 19.7824 13.989 19.274 14.57 18.6204C15.151 17.9668 15.614 17.177 15.9589 16.2511C16.322 15.307 16.5036 14.2539 16.5036 13.092C16.5036 11.93 16.3311 10.886 15.9861 9.9601C15.6412 9.016 15.1691 8.21715 14.57 7.56354C13.9709 6.90994 13.2719 6.41065 12.473 6.06569C11.6923 5.72073 10.8662 5.54825 9.99474 5.54825C8.88724 5.54825 7.97946 5.78428 7.27138 6.25633C6.56331 6.71022 5.94601 7.26397 5.41949 7.91758V0.455566H0.735308V20.6085L5.47396 18.5115C5.94601 19.0924 6.53607 19.6008 7.24415 20.0365C7.97038 20.4541 8.88724 20.6629 9.99474 20.6629ZM11.9011 13.0647C11.9011 13.6094 11.8103 14.1087 11.6288 14.5626C11.4654 15.0165 11.2384 15.4068 10.9479 15.7336C10.6574 16.0423 10.3034 16.2874 9.88581 16.4689C9.48638 16.6505 9.05972 16.7413 8.60583 16.7413C8.15194 16.7413 7.72527 16.6505 7.32585 16.4689C6.92642 16.2874 6.58146 16.0332 6.29097 15.7064C6.00048 15.3796 5.76445 14.9983 5.5829 14.5626C5.41949 14.1268 5.33779 13.6457 5.33779 13.1192C5.33779 12.5927 5.41949 12.1025 5.5829 11.6486C5.76445 11.1947 6.00048 10.8134 6.29097 10.5048C6.58146 10.178 6.92642 9.92379 7.32585 9.74223C7.72527 9.56068 8.15194 9.4699 8.60583 9.4699C9.05972 9.4699 9.48638 9.56068 9.88581 9.74223C10.3034 9.92379 10.6574 10.178 10.9479 10.5048C11.2566 10.8316 11.4926 11.2128 11.656 11.6486C11.8194 12.0843 11.9011 12.5564 11.9011 13.0647Z" fill="#101010"/>
<path d="M23.529 20.4723L22.0584 24.8297H26.089L31.5225 10.5048L33.2786 5.87506H28.4583L25.4898 15.4613L22.2763 5.87506H17.347L23.529 20.4723Z" fill="#101010"/>
<path d="M9.45007 43.866C9.0688 44.2109 8.65122 44.4651 8.19732 44.6285C7.76159 44.7919 7.29861 44.8736 6.80841 44.8736C6.49976 44.8736 6.20927 44.8373 5.93693 44.7647C5.6646 44.6739 5.42857 44.5468 5.22886 44.3834C5.02914 44.2019 4.86574 44.0021 4.73865 43.7843C4.61156 43.5482 4.54802 43.285 4.54802 42.9945C4.54802 42.6858 4.61156 42.4135 4.73865 42.1775C4.8839 41.9415 5.06546 41.7417 5.28332 41.5783C5.51935 41.3968 5.80076 41.2606 6.12757 41.1698C6.45437 41.0791 6.80841 41.0337 7.18968 41.0337C7.64357 41.0337 8.06116 41.0791 8.44243 41.1698C8.84185 41.2606 9.17774 41.3786 9.45007 41.5239V43.866ZM14.0253 47.8421V39.1273C14.0253 38.1106 13.8801 37.2119 13.5896 36.4312C13.2991 35.6505 12.8543 34.9969 12.2551 34.4704C11.6742 33.9439 10.9388 33.5535 10.0492 33.2993C9.17774 33.027 8.13378 32.8908 6.91734 32.8908C5.75537 32.8908 4.71142 32.9998 3.78548 33.2176C2.87769 33.4173 2.01529 33.6897 1.19828 34.0346V37.4116C2.01529 37.0666 2.79599 36.8306 3.54037 36.7035C4.28476 36.5583 5.02914 36.4857 5.77353 36.4857C6.97181 36.4857 7.8796 36.6854 8.49689 37.0848C9.13235 37.4661 9.45007 38.0924 9.45007 38.9639V39.2635C8.99618 39.0819 8.44243 38.9367 7.78882 38.8277C7.15337 38.7007 6.48161 38.6371 5.77353 38.6371C4.93837 38.6371 4.16675 38.737 3.45867 38.9367C2.76875 39.1182 2.16053 39.3997 1.63402 39.7809C1.12566 40.144 0.72623 40.6161 0.435738 41.1971C0.145246 41.7781 0 42.4589 0 43.2396C0 43.9658 0.12709 44.6194 0.381271 45.2004C0.653607 45.7814 1.01672 46.2716 1.47062 46.671C1.94267 47.0705 2.48734 47.37 3.10463 47.5697C3.74009 47.7876 4.40277 47.8965 5.09269 47.8965C6.05494 47.8965 6.88103 47.7331 7.57095 47.4063C8.27903 47.0795 8.89632 46.6347 9.42284 46.0719L14.0253 47.8421Z" fill="#101010"/>
<path d="M26.1913 47.8965C27.0809 47.8965 27.9161 47.7241 28.6968 47.3791C29.4957 47.016 30.1856 46.5076 30.7666 45.854C31.3475 45.2004 31.8105 44.4106 32.1555 43.4847C32.5186 42.5406 32.7001 41.4876 32.7001 40.3256C32.7001 39.1636 32.5277 38.1197 32.1827 37.1937C31.8377 36.2496 31.3657 35.4508 30.7666 34.7972C30.1674 34.1436 29.4684 33.6443 28.6696 33.2993C27.8889 32.9544 27.0628 32.7819 26.1913 32.7819C25.0838 32.7819 24.176 33.0179 23.4679 33.49C22.7599 33.9439 22.1426 34.4976 21.6161 35.1512V27.6892H16.9319V47.8421L21.6705 45.7451C22.1426 46.3261 22.7326 46.8344 23.4407 47.2702C24.1669 47.6878 25.0838 47.8965 26.1913 47.8965ZM28.0977 40.2984C28.0977 40.843 28.0069 41.3423 27.8253 41.7962C27.6619 42.2501 27.435 42.6405 27.1445 42.9673C26.854 43.2759 26.5 43.521 26.0824 43.7026C25.6829 43.8841 25.2563 43.9749 24.8024 43.9749C24.3485 43.9749 23.9218 43.8841 23.5224 43.7026C23.123 43.521 22.778 43.2668 22.4875 42.94C22.197 42.6132 21.961 42.232 21.7795 41.7962C21.6161 41.3605 21.5344 40.8793 21.5344 40.3528C21.5344 39.8263 21.6161 39.3361 21.7795 38.8822C21.961 38.4283 22.197 38.0471 22.4875 37.7384C22.778 37.4116 23.123 37.1574 23.5224 36.9759C23.9218 36.7943 24.3485 36.7035 24.8024 36.7035C25.2563 36.7035 25.6829 36.7943 26.0824 36.9759C26.5 37.1574 26.854 37.4116 27.1445 37.7384C27.4531 38.0652 27.6892 38.4465 27.8526 38.8822C28.016 39.318 28.0977 39.79 28.0977 40.2984Z" fill="#101010"/>
<path d="M50.2378 47.8421V27.6892H45.5536V34.9878C45.0634 34.3887 44.4551 33.8712 43.7289 33.4355C43.0027 32.9998 42.0858 32.7819 40.9783 32.7819C40.1068 32.7819 39.2717 32.9544 38.4728 33.2993C37.6921 33.6443 37.0022 34.1436 36.4031 34.7972C35.8221 35.4508 35.35 36.2496 34.9869 37.1937C34.642 38.1197 34.4695 39.1727 34.4695 40.3528C34.4695 41.5148 34.642 42.5678 34.9869 43.5119C35.35 44.4379 35.8312 45.2277 36.4303 45.8813C37.0294 46.5167 37.7194 47.016 38.5001 47.3791C39.2989 47.7241 40.1341 47.8965 41.0056 47.8965C42.0949 47.8965 42.9845 47.6696 43.6745 47.2157C44.3825 46.7618 44.9998 46.2171 45.5263 45.5817L50.2378 47.8421ZM39.0992 40.3528C39.0992 39.8082 39.1809 39.318 39.3443 38.8822C39.5259 38.4283 39.7619 38.038 40.0524 37.7112C40.361 37.3844 40.706 37.1393 41.0873 36.9759C41.4867 36.7943 41.9043 36.7035 42.34 36.7035C42.7939 36.7035 43.2206 36.7943 43.62 36.9759C44.0194 37.1393 44.3644 37.3844 44.6549 37.7112C44.9635 38.038 45.1995 38.4192 45.3629 38.855C45.5445 39.2907 45.6353 39.7718 45.6353 40.2984C45.6353 40.843 45.5445 41.3423 45.3629 41.7962C45.1995 42.232 44.9635 42.6132 44.6549 42.94C44.3644 43.2668 44.0194 43.521 43.62 43.7026C43.2206 43.8841 42.7939 43.9749 42.34 43.9749C41.9043 43.9749 41.4867 43.8841 41.0873 43.7026C40.706 43.521 40.361 43.2759 40.0524 42.9673C39.7619 42.6405 39.5259 42.2592 39.3443 41.8234C39.1809 41.3696 39.0992 40.8793 39.0992 40.3528Z" fill="#101010"/>
<path d="M60.3399 44.5468C59.7408 44.5468 59.2052 44.456 58.7332 44.2745C58.2611 44.0929 57.8708 43.8024 57.5621 43.403L67.3118 40.9247C67.2936 39.8717 67.1302 38.8641 66.8215 37.9018C66.5129 36.9214 66.0499 36.0681 65.4326 35.3418C64.8335 34.5975 64.0891 34.0074 63.1995 33.5717C62.328 33.1178 61.3204 32.8908 60.1765 32.8908C59.0872 32.8908 58.0796 33.0815 57.1536 33.4627C56.2458 33.844 55.4651 34.3705 54.8115 35.0423C54.1579 35.714 53.6405 36.5038 53.2592 37.4116C52.8961 38.3194 52.7145 39.3089 52.7145 40.3801C52.7145 41.4876 52.8961 42.5134 53.2592 43.4575C53.6405 44.3834 54.1579 45.1823 54.8115 45.854C55.4833 46.5258 56.2731 47.0523 57.1808 47.4336C58.1068 47.8148 59.1326 48.0055 60.2582 48.0055C60.6758 48.0055 61.1206 47.9782 61.5927 47.9238C62.0647 47.8693 62.5459 47.7785 63.0361 47.6514C63.5444 47.5244 64.0346 47.361 64.5067 47.1612C64.9969 46.9615 65.4599 46.7164 65.8956 46.4259V42.6677C65.5688 42.9582 65.1785 43.2214 64.7246 43.4575C64.2707 43.6935 63.7986 43.8932 63.3084 44.0566C62.8182 44.22 62.3189 44.3471 61.8106 44.4379C61.3022 44.5105 60.812 44.5468 60.3399 44.5468ZM57.1808 40.2167C57.1808 39.7809 57.2262 39.3361 57.317 38.8822C57.4078 38.4283 57.5621 38.0198 57.78 37.6567C57.9979 37.2936 58.2793 36.994 58.6242 36.758C58.9873 36.522 59.4231 36.404 59.9314 36.404C60.6395 36.404 61.2387 36.6309 61.7289 37.0848C62.2191 37.5205 62.5459 38.1287 62.7093 38.9094L57.1808 40.2984V40.2167Z" fill="#101010"/>
<path d="M76.6429 44.5468C76.0438 44.5468 75.5082 44.456 75.0361 44.2745C74.5641 44.0929 74.1737 43.8024 73.8651 43.403L83.6147 40.9247C83.5965 39.8717 83.4331 38.8641 83.1245 37.9018C82.8158 36.9214 82.3529 36.0681 81.7356 35.3418C81.1364 34.5975 80.3921 34.0074 79.5024 33.5717C78.6309 33.1178 77.6233 32.8908 76.4795 32.8908C75.3901 32.8908 74.3825 33.0815 73.4566 33.4627C72.5488 33.844 71.7681 34.3705 71.1145 35.0423C70.4609 35.714 69.9434 36.5038 69.5621 37.4116C69.199 38.3194 69.0175 39.3089 69.0175 40.3801C69.0175 41.4876 69.199 42.5134 69.5621 43.4575C69.9434 44.3834 70.4609 45.1823 71.1145 45.854C71.7862 46.5258 72.576 47.0523 73.4838 47.4336C74.4097 47.8148 75.4355 48.0055 76.5612 48.0055C76.9788 48.0055 77.4236 47.9782 77.8956 47.9238C78.3677 47.8693 78.8488 47.7785 79.339 47.6514C79.8474 47.5244 80.3376 47.361 80.8096 47.1612C81.2998 46.9615 81.7628 46.7164 82.1986 46.4259V42.6677C81.8718 42.9582 81.4814 43.2214 81.0275 43.4575C80.5736 43.6935 80.1016 43.8932 79.6114 44.0566C79.1212 44.22 78.6219 44.3471 78.1135 44.4379C77.6051 44.5105 77.1149 44.5468 76.6429 44.5468ZM73.4838 40.2167C73.4838 39.7809 73.5292 39.3361 73.62 38.8822C73.7107 38.4283 73.8651 38.0198 74.0829 37.6567C74.3008 37.2936 74.5822 36.994 74.9272 36.758C75.2903 36.522 75.726 36.404 76.2344 36.404C76.9425 36.404 77.5416 36.6309 78.0318 37.0848C78.522 37.5205 78.8488 38.1287 79.0122 38.9094L73.4838 40.2984V40.2167Z" fill="#101010"/>
<path d="M95.0156 32.7819C93.9807 32.7819 93.1092 33.0179 92.4012 33.49C91.7112 33.962 91.1212 34.4976 90.631 35.0967L85.9468 33.1087V47.5697H90.631V39.6448C90.631 39.1909 90.6945 38.7914 90.8216 38.4465C90.9669 38.1015 91.1484 37.8201 91.3663 37.6022C91.6023 37.3844 91.8656 37.221 92.1561 37.112C92.4466 37.0031 92.7461 36.9486 93.0548 36.9486C93.3634 36.9486 93.6539 37.0031 93.9262 37.112C94.1986 37.221 94.4346 37.3934 94.6343 37.6295C94.834 37.8473 94.9974 38.1288 95.1245 38.4737C95.2516 38.8005 95.3152 39.1909 95.3152 39.6448V47.5697H99.9994V38.1741C99.9994 37.3208 99.8723 36.5674 99.6181 35.9137C99.3639 35.242 99.0189 34.6792 98.5832 34.2253C98.1475 33.7532 97.6209 33.3992 97.0037 33.1632C96.4045 32.909 95.7418 32.7819 95.0156 32.7819Z" fill="#101010"/>
<path d="M16.9258 27.6943L22.0579 24.8281H26.0913L21.6157 27.6943H16.9258Z" fill="#0A27F1"/>
<rect y="51.6431" width="100" height="1.16716" fill="#0A27F1"/>
</svg>
