<svg width="101" height="53" viewBox="0 0 101 53" fill="none" xmlns="http://www.w3.org/2000/svg">
<path d="M10.9879 20.285C11.8775 20.285 12.7127 20.1125 13.4934 19.7675C14.2923 19.4044 14.9822 18.8961 15.5632 18.2425C16.1441 17.5889 16.6071 16.7991 16.9521 15.8731C17.3152 14.929 17.4967 13.876 17.4967 12.714C17.4967 11.5521 17.3243 10.5081 16.9793 9.58217C16.6343 8.63807 16.1623 7.83922 15.5632 7.18561C14.964 6.53201 14.265 6.03272 13.4662 5.68776C12.6855 5.3428 11.8594 5.17032 10.9879 5.17032C9.88041 5.17032 8.97262 5.40635 8.26454 5.8784C7.55647 6.33229 6.93917 6.88604 6.41266 7.53965V0.0776367H1.72847V20.2305L6.46712 18.1335C6.93917 18.7145 7.52924 19.2229 8.23731 19.6586C8.96354 20.0762 9.88041 20.285 10.9879 20.285ZM12.8943 12.6868C12.8943 13.2315 12.8035 13.7308 12.6219 14.1847C12.4585 14.6386 12.2316 15.0289 11.9411 15.3557C11.6506 15.6643 11.2966 15.9095 10.879 16.091C10.4795 16.2726 10.0529 16.3633 9.59899 16.3633C9.1451 16.3633 8.71844 16.2726 8.31901 16.091C7.91959 15.9095 7.57463 15.6553 7.28413 15.3285C6.99364 15.0017 6.75762 14.6204 6.57606 14.1847C6.41266 13.7489 6.33096 13.2678 6.33096 12.7413C6.33096 12.2148 6.41266 11.7246 6.57606 11.2707C6.75762 10.8168 6.99364 10.4355 7.28413 10.1268C7.57463 9.80004 7.91959 9.54586 8.31901 9.3643C8.71844 9.18275 9.1451 9.09197 9.59899 9.09197C10.0529 9.09197 10.4795 9.18275 10.879 9.3643C11.2966 9.54586 11.6506 9.80004 11.9411 10.1268C12.2497 10.4536 12.4858 10.8349 12.6492 11.2707C12.8126 11.7064 12.8943 12.1784 12.8943 12.6868Z" fill="#FFFEEF"/>
<path d="M24.5222 20.0944L23.0516 24.4517H27.0821L32.5157 10.1268L34.2718 5.49713H29.4515L26.483 15.0834L23.2694 5.49713H18.3401L24.5222 20.0944Z" fill="#FFFEEF"/>
<path d="M10.4432 43.488C10.062 43.833 9.64438 44.0872 9.19049 44.2506C8.75475 44.414 8.29178 44.4957 7.80157 44.4957C7.49292 44.4957 7.20243 44.4594 6.9301 44.3867C6.65776 44.296 6.42174 44.1689 6.22202 44.0055C6.02231 43.8239 5.85891 43.6242 5.73182 43.4063C5.60473 43.1703 5.54118 42.9071 5.54118 42.6166C5.54118 42.3079 5.60473 42.0356 5.73182 41.7996C5.87706 41.5635 6.05862 41.3638 6.27649 41.2004C6.51251 41.0189 6.79393 40.8827 7.12073 40.7919C7.44754 40.7011 7.80157 40.6557 8.18284 40.6557C8.63674 40.6557 9.05432 40.7011 9.43559 40.7919C9.83502 40.8827 10.1709 41.0007 10.4432 41.1459V43.488ZM15.0185 47.4641V38.7494C15.0185 37.7327 14.8732 36.834 14.5827 36.0533C14.2923 35.2726 13.8474 34.619 13.2483 34.0924C12.6673 33.5659 11.932 33.1756 11.0424 32.9214C10.1709 32.6491 9.12694 32.5129 7.91051 32.5129C6.74854 32.5129 5.70458 32.6218 4.77864 32.8397C3.87085 33.0394 3.00845 33.3117 2.19144 33.6567V37.0337C3.00845 36.6887 3.78915 36.4527 4.53354 36.3256C5.27792 36.1803 6.02231 36.1077 6.7667 36.1077C7.96497 36.1077 8.87276 36.3074 9.49006 36.7069C10.1255 37.0881 10.4432 37.7145 10.4432 38.586V38.8856C9.98934 38.704 9.43559 38.5588 8.78198 38.4498C8.14653 38.3227 7.47477 38.2592 6.7667 38.2592C5.93153 38.2592 5.15991 38.359 4.45184 38.5588C3.76192 38.7403 3.1537 39.0217 2.62718 39.403C2.11882 39.7661 1.71939 40.2382 1.4289 40.8191C1.13841 41.4001 0.993164 42.081 0.993164 42.8617C0.993164 43.5879 1.12025 44.2415 1.37443 44.8225C1.64677 45.4035 2.00989 45.8937 2.46378 46.2931C2.93583 46.6925 3.4805 46.9921 4.0978 47.1918C4.73325 47.4097 5.39594 47.5186 6.08585 47.5186C7.04811 47.5186 7.8742 47.3552 8.56411 47.0284C9.27219 46.7016 9.88948 46.2568 10.416 45.694L15.0185 47.4641Z" fill="#FFFEEF"/>
<path d="M27.1845 47.5186C28.0741 47.5186 28.9093 47.3461 29.69 47.0012C30.4888 46.6381 31.1787 46.1297 31.7597 45.4761C32.3407 44.8225 32.8037 44.0327 33.1486 43.1068C33.5118 42.1627 33.6933 41.1096 33.6933 39.9477C33.6933 38.7857 33.5208 37.7417 33.1759 36.8158C32.8309 35.8717 32.3589 35.0728 31.7597 34.4192C31.1606 33.7656 30.4616 33.2663 29.6627 32.9214C28.882 32.5764 28.056 32.4039 27.1845 32.4039C26.077 32.4039 25.1692 32.64 24.4611 33.112C23.753 33.5659 23.1357 34.1197 22.6092 34.7733V27.3113H17.925V47.4641L22.6637 45.3672C23.1357 45.9481 23.7258 46.4565 24.4339 46.8922C25.1601 47.3098 26.077 47.5186 27.1845 47.5186ZM29.0908 39.9204C29.0908 40.4651 29 40.9644 28.8185 41.4183C28.6551 41.8722 28.4281 42.2625 28.1376 42.5893C27.8472 42.898 27.4931 43.1431 27.0755 43.3246C26.6761 43.5062 26.2495 43.597 25.7956 43.597C25.3417 43.597 24.915 43.5062 24.5156 43.3246C24.1162 43.1431 23.7712 42.8889 23.4807 42.5621C23.1902 42.2353 22.9542 41.854 22.7726 41.4183C22.6092 40.9825 22.5275 40.5014 22.5275 39.9749C22.5275 39.4484 22.6092 38.9582 22.7726 38.5043C22.9542 38.0504 23.1902 37.6691 23.4807 37.3605C23.7712 37.0337 24.1162 36.7795 24.5156 36.5979C24.915 36.4164 25.3417 36.3256 25.7956 36.3256C26.2495 36.3256 26.6761 36.4164 27.0755 36.5979C27.4931 36.7795 27.8472 37.0337 28.1376 37.3605C28.4463 37.6873 28.6823 38.0686 28.8457 38.5043C29.0091 38.94 29.0908 39.4121 29.0908 39.9204Z" fill="#FFFEEF"/>
<path d="M51.2309 47.4641V27.3113H46.5467V34.6099C46.0565 34.0107 45.4483 33.4933 44.7221 33.0576C43.9959 32.6218 43.079 32.4039 41.9715 32.4039C41.1 32.4039 40.2648 32.5764 39.466 32.9214C38.6853 33.2663 37.9954 33.7656 37.3962 34.4192C36.8153 35.0728 36.3432 35.8717 35.9801 36.8158C35.6351 37.7417 35.4626 38.7948 35.4626 39.9749C35.4626 41.1369 35.6351 42.1899 35.9801 43.134C36.3432 44.0599 36.8243 44.8497 37.4235 45.5033C38.0226 46.1388 38.7125 46.6381 39.4932 47.0012C40.2921 47.3461 41.1272 47.5186 41.9987 47.5186C43.0881 47.5186 43.9777 47.2917 44.6676 46.8378C45.3757 46.3839 45.993 45.8392 46.5195 45.2038L51.2309 47.4641ZM40.0924 39.9749C40.0924 39.4302 40.1741 38.94 40.3375 38.5043C40.519 38.0504 40.7551 37.66 41.0455 37.3332C41.3542 37.0064 41.6992 36.7613 42.0804 36.5979C42.4798 36.4164 42.8974 36.3256 43.3332 36.3256C43.7871 36.3256 44.2137 36.4164 44.6131 36.5979C45.0126 36.7613 45.3575 37.0064 45.648 37.3332C45.9567 37.66 46.1927 38.0413 46.3561 38.4771C46.5377 38.9128 46.6284 39.3939 46.6284 39.9204C46.6284 40.4651 46.5377 40.9644 46.3561 41.4183C46.1927 41.854 45.9567 42.2353 45.648 42.5621C45.3575 42.8889 45.0126 43.1431 44.6131 43.3246C44.2137 43.5062 43.7871 43.597 43.3332 43.597C42.8974 43.597 42.4798 43.5062 42.0804 43.3246C41.6992 43.1431 41.3542 42.898 41.0455 42.5893C40.7551 42.2625 40.519 41.8813 40.3375 41.4455C40.1741 40.9916 40.0924 40.5014 40.0924 39.9749Z" fill="#FFFEEF"/>
<path d="M61.3331 44.1689C60.734 44.1689 60.1984 44.0781 59.7263 43.8965C59.2543 43.715 58.8639 43.4245 58.5553 43.0251L68.3049 40.5468C68.2868 39.4938 68.1234 38.4861 67.8147 37.5239C67.5061 36.5435 67.0431 35.6901 66.4258 34.9639C65.8267 34.2195 65.0823 33.6295 64.1926 33.1937C63.3212 32.7398 62.3135 32.5129 61.1697 32.5129C60.0804 32.5129 59.0727 32.7035 58.1468 33.0848C57.239 33.4661 56.4583 33.9926 55.8047 34.6643C55.1511 35.3361 54.6336 36.1259 54.2524 37.0337C53.8892 37.9415 53.7077 38.9309 53.7077 40.0021C53.7077 41.1096 53.8892 42.1354 54.2524 43.0795C54.6336 44.0055 55.1511 44.8043 55.8047 45.4761C56.4764 46.1479 57.2662 46.6744 58.174 47.0556C59.0999 47.4369 60.1258 47.6276 61.2514 47.6276C61.669 47.6276 62.1138 47.6003 62.5859 47.5458C63.0579 47.4914 63.539 47.4006 64.0292 47.2735C64.5376 47.1464 65.0278 46.983 65.4999 46.7833C65.9901 46.5836 66.453 46.3385 66.8888 46.048V42.2898C66.562 42.5803 66.1716 42.8435 65.7177 43.0795C65.2638 43.3156 64.7918 43.5153 64.3016 43.6787C63.8114 43.8421 63.3121 43.9692 62.8037 44.0599C62.2954 44.1326 61.8052 44.1689 61.3331 44.1689ZM58.174 39.8387C58.174 39.403 58.2194 38.9582 58.3102 38.5043C58.401 38.0504 58.5553 37.6419 58.7732 37.2788C58.991 36.9157 59.2724 36.6161 59.6174 36.3801C59.9805 36.144 60.4162 36.026 60.9246 36.026C61.6327 36.026 62.2318 36.253 62.722 36.7069C63.2122 37.1426 63.539 37.7508 63.7024 38.5315L58.174 39.9204V39.8387Z" fill="#FFFEEF"/>
<path d="M77.6361 44.1689C77.0369 44.1689 76.5013 44.0781 76.0293 43.8965C75.5572 43.715 75.1669 43.4245 74.8582 43.0251L84.6079 40.5468C84.5897 39.4938 84.4263 38.4861 84.1177 37.5239C83.809 36.5435 83.346 35.6901 82.7287 34.9639C82.1296 34.2195 81.3852 33.6295 80.4956 33.1937C79.6241 32.7398 78.6165 32.5129 77.4727 32.5129C76.3833 32.5129 75.3757 32.7035 74.4497 33.0848C73.5419 33.4661 72.7612 33.9926 72.1076 34.6643C71.454 35.3361 70.9366 36.1259 70.5553 37.0337C70.1922 37.9415 70.0106 38.9309 70.0106 40.0021C70.0106 41.1096 70.1922 42.1354 70.5553 43.0795C70.9366 44.0055 71.454 44.8043 72.1076 45.4761C72.7794 46.1479 73.5692 46.6744 74.477 47.0556C75.4029 47.4369 76.4287 47.6276 77.5544 47.6276C77.9719 47.6276 78.4168 47.6003 78.8888 47.5458C79.3609 47.4914 79.842 47.4006 80.3322 47.2735C80.8405 47.1464 81.3307 46.983 81.8028 46.7833C82.293 46.5836 82.756 46.3385 83.1917 46.048V42.2898C82.8649 42.5803 82.4746 42.8435 82.0207 43.0795C81.5668 43.3156 81.0947 43.5153 80.6045 43.6787C80.1143 43.8421 79.615 43.9692 79.1067 44.0599C78.5983 44.1326 78.1081 44.1689 77.6361 44.1689ZM74.477 39.8387C74.477 39.403 74.5223 38.9582 74.6131 38.5043C74.7039 38.0504 74.8582 37.6419 75.0761 37.2788C75.294 36.9157 75.5754 36.6161 75.9203 36.3801C76.2835 36.144 76.7192 36.026 77.2276 36.026C77.9356 36.026 78.5348 36.253 79.025 36.7069C79.5152 37.1426 79.842 37.7508 80.0054 38.5315L74.477 39.9204V39.8387Z" fill="#FFFEEF"/>
<path d="M96.0088 32.4039C94.9739 32.4039 94.1024 32.64 93.3943 33.112C92.7044 33.5841 92.1144 34.1197 91.6241 34.7188L86.94 32.7308V47.1918H91.6241V39.2668C91.6241 38.8129 91.6877 38.4135 91.8148 38.0685C91.96 37.7236 92.1416 37.4422 92.3595 37.2243C92.5955 37.0064 92.8587 36.843 93.1492 36.7341C93.4397 36.6252 93.7393 36.5707 94.0479 36.5707C94.3566 36.5707 94.6471 36.6252 94.9194 36.7341C95.1917 36.843 95.4278 37.0155 95.6275 37.2515C95.8272 37.4694 95.9906 37.7508 96.1177 38.0958C96.2448 38.4226 96.3083 38.8129 96.3083 39.2668V47.1918H100.993V37.7962C100.993 36.9429 100.865 36.1894 100.611 35.5358C100.357 34.8641 100.012 34.3012 99.5764 33.8473C99.1406 33.3753 98.6141 33.0212 97.9968 32.7852C97.3977 32.531 96.735 32.4039 96.0088 32.4039Z" fill="#FFFEEF"/>
<path d="M17.918 27.3162L23.0501 24.45H27.0835L22.6079 27.3162H17.918Z" fill="#0A27F1"/>
<rect x="0.993164" y="51.2649" width="100" height="1.16716" fill="#0A27F1"/>
</svg>
