<svg width="101" height="58" viewBox="0 0 101 58" fill="none" xmlns="http://www.w3.org/2000/svg">
<path d="M20.1914 19.016C20.1914 13.9974 14.729 12.7001 10.0177 11.2321C6.05746 10.003 3.94079 9.08123 3.94079 6.55487C3.94079 3.89196 6.36472 3.0726 9.6763 3.0726C13.3634 3.0726 16.4019 4.84788 16.4019 8.94467H19.2014C19.2014 5.01858 16.7774 0.682799 9.6763 0.682799C3.73595 0.682799 1.14131 2.93604 1.14131 6.62316C1.14131 10.8907 4.58945 12.188 9.3349 13.6219C13.1586 14.7485 17.3919 15.4995 17.3919 19.1525C17.3919 22.0544 15.0363 23.0445 10.9395 23.0445C5.88677 23.0445 2.84831 21.7813 2.84831 16.0799H0.0488281C0.0488281 21.713 2.54105 25.4343 10.9395 25.4343C18.0406 25.4343 20.1914 22.6007 20.1914 19.016Z" fill="#FFFEEF"/>
<path d="M26.5014 23.0786V10.5151H31.7931V8.12531H26.5014V2.9019L23.7361 3.7554V8.12531H19.9807V10.5151H23.7361V23.1128C23.7361 24.6832 24.453 25.5367 26.0576 25.4343L32.4759 25.0929V22.7031L26.5014 23.0786Z" fill="#FFFEEF"/>
<path d="M40.4938 23.0445C37.5577 23.0445 36.1921 21.6789 36.1921 18.1283V8.12531H33.3927V18.5039C33.3927 23.2152 35.8849 25.4343 39.7427 25.4343C43.4298 25.4343 45.5806 23.2835 46.2634 20.2109H47.0486L46.6048 22.1568V25.0929H49.3702V8.12531H46.6048V15.6702C46.6048 20.2109 44.0785 23.0445 40.4938 23.0445Z" fill="#FFFEEF"/>
<path d="M68.8929 25.0929V0H66.0934V10.6175L66.5714 12.5635H65.752C65.0351 9.90059 62.7477 7.78391 58.8899 7.78391C53.9737 7.78391 50.7987 11.5735 50.7987 16.592C50.7987 21.6447 53.9737 25.4343 58.8899 25.4343C62.7477 25.4343 65.0351 23.3176 65.752 20.6888H66.5714L66.0934 22.6007V25.0929H68.8929ZM66.0934 16.592C66.0934 21.1326 63.2257 23.0445 59.7092 23.0445C56.1928 23.0445 53.5982 21.1326 53.5982 16.592C53.5982 12.0856 56.1928 10.1737 59.7092 10.1737C63.2257 10.1737 66.0934 12.0856 66.0934 16.592Z" fill="#FFFEEF"/>
<path d="M76.1138 5.42826C77.4794 5.42826 78.5718 4.40406 78.5718 3.03846C78.5718 1.74114 77.4794 0.682799 76.1138 0.682799C74.714 0.682799 73.6557 1.74114 73.6557 3.03846C73.6557 4.40406 74.714 5.42826 76.1138 5.42826ZM70.4465 25.0929H82.6345V22.7031H77.8549V9.83231C77.8549 8.53499 77.2404 7.64735 75.6358 7.78391L71.7097 8.12531V10.5151L75.2261 10.2079V22.7031H70.4465V25.0929Z" fill="#FFFEEF"/>
<path d="M82.1595 16.592C82.1595 21.5423 85.71 25.4343 91.1383 25.4343C96.5324 25.4343 100.049 21.5423 100.049 16.592C100.049 11.6759 96.5324 7.78391 91.1383 7.78391C85.71 7.78391 82.1595 11.6759 82.1595 16.592ZM84.959 16.592C84.959 13.0756 87.1098 10.1737 91.1383 10.1737C95.1327 10.1737 97.2835 13.0756 97.2835 16.592C97.2835 20.1426 95.1327 23.0445 91.1383 23.0445C87.1098 23.0445 84.959 20.1426 84.959 16.592Z" fill="#FFFEEF"/>
<path d="M18.5966 57.2483V31.5264H15.7269V42.4101L16.2169 44.4048H15.377C14.6421 41.6751 12.2974 39.5054 8.34283 39.5054C3.30344 39.5054 0.0488281 43.3899 0.0488281 48.5343C0.0488281 53.7137 3.30344 57.5982 8.34283 57.5982C12.2974 57.5982 14.6421 55.4285 15.377 52.7338H16.2169L15.7269 54.6936V57.2483H18.5966ZM15.7269 48.5343C15.7269 53.1888 12.7873 55.1485 9.18273 55.1485C5.57816 55.1485 2.91848 53.1888 2.91848 48.5343C2.91848 43.9149 5.57816 41.9551 9.18273 41.9551C12.7873 41.9551 15.7269 43.9149 15.7269 48.5343Z" fill="#FFFEEF"/>
<path d="M20.3601 48.3243C20.3601 53.3287 22.9847 57.5982 29.214 57.5982C34.7433 57.5982 36.8431 53.8537 37.508 51.159H34.6384C34.0084 53.8187 32.0837 55.2185 29.214 55.2185C24.9095 55.2185 23.3347 52.3839 23.1597 49.0943H36.9131V47.9744C36.9131 42.62 33.6935 39.5054 28.7941 39.5054C23.8596 39.5054 20.3601 42.725 20.3601 48.3243ZM23.1597 46.9245C23.1597 44.1249 25.3645 41.9201 28.7941 41.9201C32.2586 41.9201 34.1134 44.1249 34.1134 46.9245H23.1597Z" fill="#FFFEEF"/>
<path d="M50.7621 57.5982L63.9205 57.2483V54.7986L51.497 55.1485V32.5762H48.6274V55.4985C48.6274 56.8283 49.3973 57.6332 50.7621 57.5982Z" fill="#FFFEEF"/>
<path d="M71.425 55.1485C68.4153 55.1485 67.0155 53.7487 67.0155 50.1091V39.8554H64.1458V50.4941C64.1458 55.3235 66.7005 57.5982 70.655 57.5982C74.4346 57.5982 76.6393 55.3935 77.3392 52.2439H78.1441L77.6892 54.2386V57.2483H80.5239V39.8554H77.6892V47.5894C77.6892 52.2439 75.0995 55.1485 71.425 55.1485Z" fill="#FFFEEF"/>
<path d="M82.0907 57.2483H98.0488V54.7986H84.8904L82.9306 55.2535V54.4486L98.0488 45.1047V39.8554H82.0907V42.3051H95.2492L97.2089 41.8501V42.655L82.0907 51.9989V57.2483Z" fill="#FFFEEF"/>
</svg>
