<svg width="101" height="58" viewBox="0 0 101 58" fill="none" xmlns="http://www.w3.org/2000/svg">
<path d="M20.5596 19.3407C20.5596 14.3221 15.0972 13.0248 10.3859 11.5568C6.42563 10.3277 4.30895 9.40594 4.30895 6.87958C4.30895 4.21666 6.73289 3.3973 10.0445 3.3973C13.7316 3.3973 16.77 5.17258 16.77 9.26938H19.5695C19.5695 5.34328 17.1456 1.00751 10.0445 1.00751C4.10411 1.00751 1.50947 3.26074 1.50947 6.94786C1.50947 11.2154 4.95761 12.5127 9.70307 13.9466C13.5267 15.0732 17.7601 15.8243 17.7601 19.4772C17.7601 22.3791 15.4044 23.3692 11.3076 23.3692C6.25493 23.3692 3.21647 22.106 3.21647 16.4046H0.416992C0.416992 22.0377 2.90921 25.759 11.3076 25.759C18.4088 25.759 20.5596 22.9254 20.5596 19.3407Z" fill="#101010"/>
<path d="M26.8696 23.4033V10.8398H32.1613V8.45002H26.8696V3.2266L24.1043 4.08011V8.45002H20.3489V10.8398H24.1043V23.4375C24.1043 25.0079 24.8212 25.8614 26.4258 25.759L32.8441 25.4176V23.0278L26.8696 23.4033Z" fill="#101010"/>
<path d="M40.8619 23.3692C37.9259 23.3692 36.5603 22.0036 36.5603 18.453V8.45002H33.7608V18.8286C33.7608 23.5399 36.253 25.759 40.1109 25.759C43.798 25.759 45.9488 23.6082 46.6316 20.5356H47.4168L46.973 22.4816V25.4176H49.7383V8.45002H46.973V15.995C46.973 20.5356 44.4466 23.3692 40.8619 23.3692Z" fill="#101010"/>
<path d="M69.2611 25.4176V0.324707H66.4616V10.9422L66.9395 12.8882H66.1202C65.4032 10.2253 63.1159 8.10862 59.258 8.10862C54.3419 8.10862 51.1669 11.8982 51.1669 16.9167C51.1669 21.9695 54.3419 25.759 59.258 25.759C63.1159 25.759 65.4032 23.6423 66.1202 21.0135H66.9395L66.4616 22.9254V25.4176H69.2611ZM66.4616 16.9167C66.4616 21.4574 63.5938 23.3692 60.0774 23.3692C56.561 23.3692 53.9663 21.4574 53.9663 16.9167C53.9663 12.4103 56.561 10.4984 60.0774 10.4984C63.5938 10.4984 66.4616 12.4103 66.4616 16.9167Z" fill="#101010"/>
<path d="M76.4819 5.75296C77.8475 5.75296 78.94 4.72876 78.94 3.36316C78.94 2.06585 77.8475 1.00751 76.4819 1.00751C75.0822 1.00751 74.0239 2.06585 74.0239 3.36316C74.0239 4.72876 75.0822 5.75296 76.4819 5.75296ZM70.8147 25.4176H83.0027V23.0278H78.2231V10.157C78.2231 8.8597 77.6086 7.97206 76.004 8.10862L72.0779 8.45002V10.8398L75.5943 10.5326V23.0278H70.8147V25.4176Z" fill="#101010"/>
<path d="M82.5276 16.9167C82.5276 21.867 86.0782 25.759 91.5065 25.759C96.9006 25.759 100.417 21.867 100.417 16.9167C100.417 12.0006 96.9006 8.10862 91.5065 8.10862C86.0782 8.10862 82.5276 12.0006 82.5276 16.9167ZM85.3271 16.9167C85.3271 13.4003 87.4779 10.4984 91.5065 10.4984C95.5008 10.4984 97.6517 13.4003 97.6517 16.9167C97.6517 20.4673 95.5008 23.3692 91.5065 23.3692C87.4779 23.3692 85.3271 20.4673 85.3271 16.9167Z" fill="#101010"/>
<path d="M18.9648 57.573V31.8511H16.0951V42.7348L16.5851 44.7295H15.7452C15.0102 41.9999 12.6655 39.8301 8.711 39.8301C3.6716 39.8301 0.416992 43.7146 0.416992 48.859C0.416992 54.0384 3.6716 57.9229 8.711 57.9229C12.6655 57.9229 15.0102 55.7532 15.7452 53.0585H16.5851L16.0951 55.0183V57.573H18.9648ZM16.0951 48.859C16.0951 53.5135 13.1555 55.4732 9.5509 55.4732C5.94633 55.4732 3.28665 53.5135 3.28665 48.859C3.28665 44.2396 5.94633 42.2798 9.5509 42.2798C13.1555 42.2798 16.0951 44.2396 16.0951 48.859Z" fill="#101010"/>
<path d="M20.7282 48.6491C20.7282 53.6535 23.3529 57.9229 29.5822 57.9229C35.1115 57.9229 37.2113 54.1784 37.8762 51.4837H35.0065C34.3766 54.1434 32.4518 55.5432 29.5822 55.5432C25.2777 55.5432 23.7029 52.7086 23.5279 49.419H37.2812V48.2991C37.2812 42.9447 34.0616 39.8301 29.1622 39.8301C24.2278 39.8301 20.7282 43.0497 20.7282 48.6491ZM23.5279 47.2492C23.5279 44.4496 25.7326 42.2448 29.1622 42.2448C32.6268 42.2448 34.4816 44.4496 34.4816 47.2492H23.5279Z" fill="#101010"/>
<path d="M51.1303 57.9229L64.2887 57.573V55.1233L51.8652 55.4732V32.9009H48.9955V55.8232C48.9955 57.153 49.7654 57.9579 51.1303 57.9229Z" fill="#101010"/>
<path d="M71.7931 55.4732C68.7835 55.4732 67.3837 54.0734 67.3837 50.4338V40.1801H64.514V50.8188C64.514 55.6482 67.0687 57.9229 71.0232 57.9229C74.8028 57.9229 77.0075 55.7182 77.7074 52.5686H78.5123L78.0574 54.5633V57.573H80.892V40.1801H78.0574V47.9141C78.0574 52.5686 75.4677 55.4732 71.7931 55.4732Z" fill="#101010"/>
<path d="M82.4589 57.573H98.417V55.1233H85.2586L83.2988 55.5782V54.7733L98.417 45.4294V40.1801H82.4589V42.6298H95.6173L97.5771 42.1748V42.9797L82.4589 52.3236V57.573Z" fill="#101010"/>
</svg>
