<svg width="244" height="30" viewBox="0 0 244 30" fill="none" xmlns="http://www.w3.org/2000/svg">
<path d="M24.4138 22.4222C24.4138 16.5047 17.9729 14.975 12.4177 13.244C7.74803 11.7948 5.2522 10.7079 5.2522 7.72903C5.2522 4.58911 8.11033 3.62298 12.0151 3.62298C16.3627 3.62298 19.9454 5.71626 19.9454 10.5469H23.2463C23.2463 5.91754 20.3882 0.805107 12.0151 0.805107C5.01067 0.805107 1.95126 3.46196 1.95126 7.80954C1.95126 12.8415 6.01705 14.3712 11.6125 16.0619C16.1211 17.3903 21.1128 18.2759 21.1128 22.5833C21.1128 26.005 18.3352 27.1724 13.5045 27.1724C7.54675 27.1724 3.96403 25.6829 3.96403 18.9603H0.663086C0.663086 25.6024 3.60173 29.9903 13.5045 29.9903C21.8777 29.9903 24.4138 26.6491 24.4138 22.4222Z" fill="#101010"/>
<path d="M31.8541 27.2126V12.3987H38.0937V9.58078H31.8541V3.42171L28.5934 4.42809V9.58078H24.1653V12.3987H28.5934V27.2529C28.5934 29.1046 29.4388 30.111 31.3308 29.9903L38.8988 29.5877V26.7698L31.8541 27.2126Z" fill="#101010"/>
<path d="M48.3528 27.1724C44.8908 27.1724 43.2806 25.5622 43.2806 21.3756V9.58078H39.9797V21.8184C39.9797 27.3737 42.9183 29.9903 47.4672 29.9903C51.8148 29.9903 54.3509 27.4542 55.156 23.8312H56.0818L55.5585 26.1257V29.5877H58.8192V9.58078H55.5585V18.4772C55.5585 23.8312 52.5796 27.1724 48.3528 27.1724Z" fill="#101010"/>
<path d="M81.839 29.5877V0H78.538V12.5194L79.1016 14.814H78.1355C77.2901 11.6741 74.593 9.17822 70.0442 9.17822C64.2474 9.17822 60.5036 13.6466 60.5036 19.5641C60.5036 25.5219 64.2474 29.9903 70.0442 29.9903C74.593 29.9903 77.2901 27.4944 78.1355 24.3948H79.1016L78.538 26.6491V29.5877H81.839ZM78.538 19.5641C78.538 24.9181 75.1566 27.1724 71.0103 27.1724C66.864 27.1724 63.8046 24.9181 63.8046 19.5641C63.8046 14.2504 66.864 11.9961 71.0103 11.9961C75.1566 11.9961 78.538 14.2504 78.538 19.5641Z" fill="#101010"/>
<path d="M90.3533 6.4006C91.9635 6.4006 93.2517 5.19294 93.2517 3.58273C93.2517 2.05302 91.9635 0.805107 90.3533 0.805107C88.7028 0.805107 87.4549 2.05302 87.4549 3.58273C87.4549 5.19294 88.7028 6.4006 90.3533 6.4006ZM83.6709 29.5877H98.0421V26.7698H92.4063V11.5935C92.4063 10.0638 91.6817 9.0172 89.7897 9.17822L85.1604 9.58078V12.3987L89.3067 12.0364V26.7698H83.6709V29.5877Z" fill="#101010"/>
<path d="M97.482 19.5641C97.482 25.4011 101.669 29.9903 108.069 29.9903C114.429 29.9903 118.576 25.4011 118.576 19.5641C118.576 13.7673 114.429 9.17822 108.069 9.17822C101.669 9.17822 97.482 13.7673 97.482 19.5641ZM100.783 19.5641C100.783 15.4178 103.319 11.9961 108.069 11.9961C112.779 11.9961 115.315 15.4178 115.315 19.5641C115.315 23.7507 112.779 27.1724 108.069 27.1724C103.319 27.1724 100.783 23.7507 100.783 19.5641Z" fill="#101010"/>
<path d="M151.943 29.5877V0H148.642V12.5194L149.206 14.814H148.24C147.394 11.6741 144.697 9.17822 140.148 9.17822C134.351 9.17822 130.608 13.6466 130.608 19.5641C130.608 25.5219 134.351 29.9903 140.148 29.9903C144.697 29.9903 147.394 27.4944 148.24 24.3948H149.206L148.642 26.6491V29.5877H151.943ZM148.642 19.5641C148.642 24.9181 145.261 27.1724 141.114 27.1724C136.968 27.1724 133.909 24.9181 133.909 19.5641C133.909 14.2504 136.968 11.9961 141.114 11.9961C145.261 11.9961 148.642 14.2504 148.642 19.5641Z" fill="#101010"/>
<path d="M153.972 19.3226C153.972 25.0791 156.991 29.9903 164.156 29.9903C170.517 29.9903 172.932 25.6829 173.697 22.5833H170.396C169.671 25.6427 167.457 27.2529 164.156 27.2529C159.205 27.2529 157.393 23.9922 157.192 20.2082H173.012V18.92C173.012 12.761 169.309 9.17822 163.673 9.17822C157.997 9.17822 153.972 12.8817 153.972 19.3226ZM157.192 17.7124C157.192 14.4919 159.728 11.9558 163.673 11.9558C167.658 11.9558 169.792 14.4919 169.792 17.7124H157.192Z" fill="#101010"/>
<path d="M188.943 29.9903L204.079 29.5877V26.7698L189.788 27.1724V1.20766H186.487V27.5749C186.487 29.1046 187.373 30.0305 188.943 29.9903Z" fill="#101010"/>
<path d="M212.711 27.1724C209.249 27.1724 207.639 25.5622 207.639 21.3756V9.58078H204.338V21.8184C204.338 27.3737 207.277 29.9903 211.825 29.9903C216.173 29.9903 218.709 27.4542 219.514 23.8312H220.44L219.917 26.1257V29.5877H223.177V9.58078H219.917V18.4772C219.917 23.8312 216.938 27.1724 212.711 27.1724Z" fill="#101010"/>
<path d="M224.98 29.5877H243.336V26.7698H228.2L225.946 27.2931V26.3673L243.336 15.6191V9.58078H224.98V12.3987H240.116L242.37 11.8753V12.8012L224.98 23.5494V29.5877Z" fill="#101010"/>
</svg>
