<svg width="244" height="30" viewBox="0 0 244 30" fill="none" xmlns="http://www.w3.org/2000/svg">
<path d="M24.4147 22.4222C24.4147 16.5047 17.9739 14.975 12.4186 13.244C7.74901 11.7948 5.25317 10.7079 5.25317 7.72903C5.25317 4.58911 8.11131 3.62298 12.0161 3.62298C16.3637 3.62298 19.9464 5.71626 19.9464 10.5469H23.2473C23.2473 5.91754 20.3892 0.805107 12.0161 0.805107C5.01164 0.805107 1.95223 3.46196 1.95223 7.80954C1.95223 12.8415 6.01803 14.3712 11.6135 16.0619C16.1221 17.3903 21.1138 18.2759 21.1138 22.5833C21.1138 26.005 18.3362 27.1724 13.5055 27.1724C7.54773 27.1724 3.965 25.6829 3.965 18.9603H0.664062C0.664062 25.6024 3.6027 29.9903 13.5055 29.9903C21.8786 29.9903 24.4147 26.6491 24.4147 22.4222Z" fill="#FFFEEF"/>
<path d="M31.8551 27.2126V12.3987H38.0946V9.58078H31.8551V3.42171L28.5944 4.42809V9.58078H24.1663V12.3987H28.5944V27.2529C28.5944 29.1046 29.4397 30.111 31.3317 29.9903L38.8997 29.5877V26.7698L31.8551 27.2126Z" fill="#FFFEEF"/>
<path d="M48.3538 27.1724C44.8918 27.1724 43.2816 25.5622 43.2816 21.3756V9.58078H39.9807V21.8184C39.9807 27.3737 42.9193 29.9903 47.4682 29.9903C51.8157 29.9903 54.3518 27.4542 55.1569 23.8312H56.0828L55.5595 26.1257V29.5877H58.8202V9.58078H55.5595V18.4772C55.5595 23.8312 52.5806 27.1724 48.3538 27.1724Z" fill="#FFFEEF"/>
<path d="M81.84 29.5877V0H78.539V12.5194L79.1026 14.814H78.1365C77.2911 11.6741 74.594 9.17822 70.0451 9.17822C64.2484 9.17822 60.5046 13.6466 60.5046 19.5641C60.5046 25.5219 64.2484 29.9903 70.0451 29.9903C74.594 29.9903 77.2911 27.4944 78.1365 24.3948H79.1026L78.539 26.6491V29.5877H81.84ZM78.539 19.5641C78.539 24.9181 75.1576 27.1724 71.0113 27.1724C66.865 27.1724 63.8056 24.9181 63.8056 19.5641C63.8056 14.2504 66.865 11.9961 71.0113 11.9961C75.1576 11.9961 78.539 14.2504 78.539 19.5641Z" fill="#FFFEEF"/>
<path d="M90.3543 6.4006C91.9645 6.4006 93.2527 5.19294 93.2527 3.58273C93.2527 2.05302 91.9645 0.805107 90.3543 0.805107C88.7038 0.805107 87.4559 2.05302 87.4559 3.58273C87.4559 5.19294 88.7038 6.4006 90.3543 6.4006ZM83.6719 29.5877H98.0431V26.7698H92.4073V11.5935C92.4073 10.0638 91.6827 9.0172 89.7907 9.17822L85.1613 9.58078V12.3987L89.3076 12.0364V26.7698H83.6719V29.5877Z" fill="#FFFEEF"/>
<path d="M97.4829 19.5641C97.4829 25.4011 101.67 29.9903 108.07 29.9903C114.43 29.9903 118.577 25.4011 118.577 19.5641C118.577 13.7673 114.43 9.17822 108.07 9.17822C101.67 9.17822 97.4829 13.7673 97.4829 19.5641ZM100.784 19.5641C100.784 15.4178 103.32 11.9961 108.07 11.9961C112.78 11.9961 115.316 15.4178 115.316 19.5641C115.316 23.7507 112.78 27.1724 108.07 27.1724C103.32 27.1724 100.784 23.7507 100.784 19.5641Z" fill="#FFFEEF"/>
<path d="M151.944 29.5877V0H148.643V12.5194L149.207 14.814H148.241C147.395 11.6741 144.698 9.17822 140.149 9.17822C134.352 9.17822 130.609 13.6466 130.609 19.5641C130.609 25.5219 134.352 29.9903 140.149 29.9903C144.698 29.9903 147.395 27.4944 148.241 24.3948H149.207L148.643 26.6491V29.5877H151.944ZM148.643 19.5641C148.643 24.9181 145.262 27.1724 141.115 27.1724C136.969 27.1724 133.91 24.9181 133.91 19.5641C133.91 14.2504 136.969 11.9961 141.115 11.9961C145.262 11.9961 148.643 14.2504 148.643 19.5641Z" fill="#FFFEEF"/>
<path d="M153.973 19.3226C153.973 25.0791 156.992 29.9903 164.157 29.9903C170.518 29.9903 172.933 25.6829 173.698 22.5833H170.397C169.672 25.6427 167.458 27.2529 164.157 27.2529C159.206 27.2529 157.394 23.9922 157.193 20.2082H173.013V18.92C173.013 12.761 169.31 9.17822 163.674 9.17822C157.998 9.17822 153.973 12.8817 153.973 19.3226ZM157.193 17.7124C157.193 14.4919 159.729 11.9558 163.674 11.9558C167.659 11.9558 169.793 14.4919 169.793 17.7124H157.193Z" fill="#FFFEEF"/>
<path d="M188.944 29.9903L204.08 29.5877V26.7698L189.789 27.1724V1.20766H186.488V27.5749C186.488 29.1046 187.374 30.0305 188.944 29.9903Z" fill="#FFFEEF"/>
<path d="M212.712 27.1724C209.25 27.1724 207.64 25.5622 207.64 21.3756V9.58078H204.339V21.8184C204.339 27.3737 207.278 29.9903 211.826 29.9903C216.174 29.9903 218.71 27.4542 219.515 23.8312H220.441L219.918 26.1257V29.5877H223.178V9.58078H219.918V18.4772C219.918 23.8312 216.939 27.1724 212.712 27.1724Z" fill="#FFFEEF"/>
<path d="M224.981 29.5877H243.337V26.7698H228.201L225.947 27.2931V26.3673L243.337 15.6191V9.58078H224.981V12.3987H240.117L242.371 11.8753V12.8012L224.981 23.5494V29.5877Z" fill="#FFFEEF"/>
</svg>
